<svg width="56" height="57" viewBox="0 0 56 57" xmlns="http://www.w3.org/2000/svg"><g fill="none" fill-rule="evenodd"><path fill="#E3E5EA" d="M2 44.3l2.6 7.5H13l17-7.5 4.2 12 16.5-6V39.8l-7-15.2-7.5-6L30 2.7 28 1l-1.7 9.3-9-9.4-1 1.7V14L13 24.5"/><path fill="#FF3BFF" d="M34.4 20l7 10-1.7 4.7h4.6l5 8-7.4 6.7h11l3 2V39L51 20l-11.5-9.7h-5.3"/><circle fill="#000" cx="25" cy="27" r="3"/><path fill="#FFFE4A" d="M15.3 23L2 6.7l16.2 9.6M15.3 23c4-1.6 5-3.8 3-6.7"/><path fill="#FF3BFF" d="M17.2 17.3l4.4 6.3 1.6-6.3 2.2 3 1.5-5.6v-4.2L21.5 13M4.3 40l11 11-5.7 4L0 50.2v-5.7"/><circle fill="#000" cx="3" cy="46" r="1"/></g></svg>