<?xml version="1.0" encoding="UTF-8"?>
<svg width="29px" height="45px" viewBox="0 0 29 45" version="1.1" xmlns="http://www.w3.org/2000/svg" xmlns:xlink="http://www.w3.org/1999/xlink">
    <!-- Generator: Sketch 47.1 (45422) - http://www.bohemiancoding.com/sketch -->
    <title>Group 4</title>
    <desc>Created with Sketch.</desc>
    <defs></defs>
    <g id="Page-1" stroke="none" stroke-width="1" fill="none" fill-rule="evenodd">
        <g id="Game" transform="translate(-328.000000, -505.000000)">
            <g id="Group-4" transform="translate(328.000000, 505.000000)">
                <polygon id="Path-14" fill="#FFFE4A" points="27.3786077 0.711073329 16.6893038 2.13650226 9.9832872 8.30833634 6 20.1997865 11.3804525 36.9017059 20.1063764 41.4615711 23.0071667 44.8758173 26.2150883 42.7023444 23.0071667 38.5127327 23.0071667 31.4025462 18.8401659 20.1997865 23.0071667 8.30833634"></polygon>
                <polygon id="Path-14" fill="#D1CF00" points="13.0168152 21.351593 6 20.1997865 11.3804525 36.9017059 20.1063764 41.4615711 23.0071667 44.8758173 26.2150883 42.7023444 23.0071667 38.5127327 23.0071667 31.4025462 18.8401659 20.1997865"></polygon>
                <polygon id="Path-32" fill="#FFFB97" points="13.019355 21.3419523 1.86163092 38.4947756 0 24.0087245 6.0084595 20.1971211"></polygon>
                <polygon id="Path-33" fill="#FFFB97" points="28.1775678 36.5486582 28.1775678 22.6533169 18.9952427 19.7626101 13 21.3428267"></polygon>
            </g>
        </g>
    </g>
</svg>