<?xml version="1.0" encoding="UTF-8"?>
<svg width="43px" height="25px" viewBox="0 0 43 25" version="1.1" xmlns="http://www.w3.org/2000/svg" xmlns:xlink="http://www.w3.org/1999/xlink">
    <!-- Generator: Sketch 48.2 (47327) - http://www.bohemiancoding.com/sketch -->
    <title>Group 8</title>
    <desc>Created with Sketch.</desc>
    <defs></defs>
    <g id="Design" stroke="none" stroke-width="1" fill="none" fill-rule="evenodd" transform="translate(-565.000000, -1902.000000)">
        <g id="Group-8" transform="translate(565.000000, 1902.000000)">
            <circle id="Oval" stroke="#888888" fill="#FFFFFF" cx="10" cy="21" r="3"></circle>
            <circle id="Oval" stroke="#888888" fill="#FFFFFF" cx="33" cy="21" r="3"></circle>
            <path d="M4.94077747,20.5816444 L0.958268372,20.5816444 L0.958268372,11.1479722 L3.85336187,2.07343467 L5.28854785,0.58164441 L40.6687106,0.58164441 L42.1582919,2.07343467 L42.1582919,20.5816444 L38.0586615,20.5816444 C37.3463286,17.4635382 35.6305143,15.9044851 32.9112186,15.9044851 C30.1919229,15.9044851 28.5392977,17.4635382 27.953343,20.5816444 L15.0472162,20.5816444 C14.4715727,17.4635382 12.7718543,15.9044851 9.9480609,15.9044851 C7.12426755,15.9044851 5.45517307,17.4635382 4.94077747,20.5816444 Z" id="Path-12" fill="#FFFFFF"></path>
            <polygon id="Path-16" stroke="#888888" fill="#000000" points="13.9380235 11.1086376 13.9380235 3.60889228 6.43344106 3.60889228 4.22610423 11.1086376"></polygon>
            <polygon id="Path-16" stroke="#888888" fill="#000000" points="22.6317634 11.1086376 22.6317634 3.60889228 15.1188904 3.60889228 15.1188904 11.1086376"></polygon>
            <polygon id="Path-16" stroke="#888888" fill="#000000" points="31.3459924 11.1086376 31.3459924 3.60889228 23.8331194 3.60889228 23.8331194 11.1086376"></polygon>
            <polygon id="Path-16" stroke="#888888" fill="#000000" points="40.0602214 11.1086376 40.0602214 3.60889228 32.5473484 3.60889228 32.5473484 11.1086376"></polygon>
        </g>
    </g>
</svg>