<?xml version="1.0" encoding="UTF-8"?>
<svg width="26px" height="19px" viewBox="0 0 26 19" version="1.1" xmlns="http://www.w3.org/2000/svg" xmlns:xlink="http://www.w3.org/1999/xlink">
    <!-- Generator: Sketch 48.2 (47327) - http://www.bohemiancoding.com/sketch -->
    <title>Group 9</title>
    <desc>Created with Sketch.</desc>
    <defs>
        <rect id="path-1" x="6" y="5" width="6.15062792" height="3"></rect>
    </defs>
    <g id="Design" stroke="none" stroke-width="1" fill="none" fill-rule="evenodd" transform="translate(-391.000000, -1972.000000)">
        <g id="Group-9" transform="translate(404.500000, 1981.500000) scale(-1, 1) translate(-404.500000, -1981.500000) translate(392.000000, 1973.000000)">
            <path d="M16.5199975,2 L14,2" id="Path-17" stroke="#000000"></path>
            <circle id="Oval" stroke="#888888" fill="#000000" cx="4.5" cy="14.5" r="2.5"></circle>
            <circle id="Oval" stroke="#888888" fill="#000000" cx="19.5" cy="14.5" r="2.5"></circle>
            <polygon id="Path-20" stroke="#FFFFFF" fill="#FFFFFF" points="17.8077828 14.2972169 8.64751005 14.2972169 8.64751005 12.6793173 0.746603385 12.6793173 0.746603385 8.43162181 5.1616054 7.38603107 5.1616054 4.20270496 13.110072 4.20270496 13.110072 8.43162181 10.7210838 12.3456047 17.0511908 12.3456047 17.0511908 2.23211851 16.0308691 0.485898027 19.5617636 0.485898027 21.0682258 0 21.0682258 4.20270496 19.7940593 4.20270496 21.0682258 9.3302593 24.7466034 13.3919286 19.5617636 13.3919286"></polygon>
            <g id="Rectangle-6">
                <use fill="#000000" fill-rule="evenodd" xlink:href="#path-1"></use>
                <rect stroke="#888888" stroke-width="1" x="6.5" y="5.5" width="5.15062792" height="2"></rect>
            </g>
        </g>
    </g>
</svg>