<?xml version="1.0" encoding="UTF-8"?>
<svg width="50px" height="26px" viewBox="0 0 50 26" version="1.1" xmlns="http://www.w3.org/2000/svg" xmlns:xlink="http://www.w3.org/1999/xlink">
    <!-- Generator: Sketch 48.2 (47327) - http://www.bohemiancoding.com/sketch -->
    <title>Group 11</title>
    <desc>Created with Sketch.</desc>
    <defs></defs>
    <g id="Design" stroke="none" stroke-width="1" fill="none" fill-rule="evenodd" transform="translate(-394.000000, -1899.000000)">
        <g id="Group-11" transform="translate(394.000000, 1899.000000)">
            <rect id="Rectangle-7" fill="#FFFFFF" x="17" y="0" width="33" height="15"></rect>
            <path d="M3.9825091,22 L0,22 L0,12.5663278 L2.69883593,4.02809742 L4.14574441,2.48325971 L15.3025359,2.48325971 L15.3025359,16.5207068 L50,16.5207068 L50,22 L43,22 C42.3859624,18.8818938 40.7192957,17.3228407 38,17.3228407 C35.2807043,17.3228407 33.6140376,18.8818938 33,22 L14.0889478,22 C13.5133043,18.8818938 11.8135859,17.3228407 8.98979253,17.3228407 C6.16599918,17.3228407 4.4969047,18.8818938 3.9825091,22 Z" id="Path-12" fill="#FFFFFF"></path>
            <polygon id="Path-16" stroke="#888888" fill="#000000" points="12.7119193 12.4997454 12.7119193 5 5.20733683 5 3 12.4997454"></polygon>
            <circle id="Oval" stroke="#888888" fill="#FFFFFF" cx="9" cy="22" r="3"></circle>
            <circle id="Oval" stroke="#888888" fill="#FFFFFF" cx="38" cy="22" r="3"></circle>
        </g>
    </g>
</svg>