<?xml version="1.0" encoding="UTF-8"?>
<svg width="37.5px" height="50px" viewBox="0 0 27 36" version="1.1" xmlns="http://www.w3.org/2000/svg" xmlns:xlink="http://www.w3.org/1999/xlink">
    <!-- Generator: Sketch 48.2 (47327) - http://www.bohemiancoding.com/sketch -->
    <title>Group</title>
    <desc>Created with Sketch.</desc>
    <defs>
        <path d="M4.5,0 L4.5,9" id="path-1"></path>
        <polyline id="path-2" points="2 4 7 8.02473982 2 12"></polyline>
    </defs>
    <g id="Design" stroke="none" stroke-width="1" fill="none" fill-rule="evenodd" transform="translate(-422.000000, -412.000000)">
        <g id="Group" transform="translate(423.000000, 413.000000)" stroke="#FFFFFF">
            <polyline id="Path-5" stroke-width="2" points="3 9.8563162 8.99356142 7 12.3567731 9.8563162 17.0058073 9.8563162"></polyline>
            <polyline id="Path-10" stroke-width="2" points="3 14 10.0256281 14 18 16.3749681"></polyline>
            <polyline id="Path-10" stroke-width="2" points="3 18.5 7.84891995 19.38355 12.1703325 22.1685618 17.0058073 21.2482255"></polyline>
            <g id="icon-turn" transform="translate(16.149902, 22.500000)">
                <g id="Path-14" transform="translate(4.500000, 4.500000) scale(-1, 1) translate(-4.500000, -4.500000) ">
                    <use stroke-width="2" xlink:href="#path-1"></use>
                    <use stroke-width="1" xlink:href="#path-1"></use>
                </g>
                <g id="Path-15" transform="translate(4.500000, 8.000000) scale(-1, 1) rotate(90.000000) translate(-4.500000, -8.000000) ">
                    <use stroke-width="2" xlink:href="#path-2"></use>
                    <use stroke-width="1" xlink:href="#path-2"></use>
                </g>
            </g>
            <polyline id="Path-13" stroke-width="2" points="13.8209616 28.9826339 0 28.9826339 0 0 14.9094784 0 20.6161987 5.30900593 20.6161987 20.3745512"></polyline>
        </g>
    </g>
</svg>
