<?xml version="1.0" ?>
<svg height="50px" version="1.1" viewBox="0 0 52 60" width="43px" xmlns="http://www.w3.org/2000/svg" xmlns:xlink="http://www.w3.org/1999/xlink"><title/><desc/><defs/>
<g fill="none" fill-rule="evenodd" id="People" stroke="none" stroke-width="1">
<g fill="#FFF" id="Icon-4" transform="translate(-4.000000, 0.000000)">
<path d="M25,46 L35,46 C35.553,46 36,45.552 36,45 C36,44.448 35.553,44 35,44 L25,44 C24.447,44 24,44.448 24,45 C24,45.552 24.447,46 25,46 L25,46 Z M25,40 L41,40 C41.553,40 42,39.552 42,39 C42,38.448 41.553,38 41,38 L25,38 C24.447,38 24,38.448 24,39 C24,39.552 24.447,40 25,40 L25,40 Z M24,33 C24,33.552 24.447,34 25,34 L43,34 C43.553,34 44,33.552 44,33 C44,32.448 43.553,32 43,32 L25,32 C24.447,32 24,32.448 24,33 L24,33 Z M25,28 L39,28 C39.553,28 40,27.552 40,27 C40,26.448 39.553,26 39,26 L25,26 C24.447,26 24,26.448 24,27 C24,27.552 24.447,28 25,28 L25,28 Z M25,22 L41,22 C41.553,22 42,21.552 42,21 C42,20.448 41.553,20 41,20 L25,20 C24.447,20 24,20.448 24,21 C24,21.552 24.447,22 25,22 L25,22 Z M19,44 L17,44 C16.447,44 16,44.448 16,45 C16,45.552 16.447,46 17,46 L19,46 C19.553,46 20,45.552 20,45 C20,44.448 19.553,44 19,44 L19,44 Z M19,38 L17,38 C16.447,38 16,38.448 16,39 C16,39.552 16.447,40 17,40 L19,40 C19.553,40 20,39.552 20,39 C20,38.448 19.553,38 19,38 L19,38 Z M19,32 L17,32 C16.447,32 16,32.448 16,33 C16,33.552 16.447,34 17,34 L19,34 C19.553,34 20,33.552 20,33 C20,32.448 19.553,32 19,32 L19,32 Z M19,26 L17,26 C16.447,26 16,26.448 16,27 C16,27.552 16.447,28 17,28 L19,28 C19.553,28 20,27.552 20,27 C20,26.448 19.553,26 19,26 L19,26 Z M17,22 L19,22 C19.553,22 20,21.552 20,21 C20,20.448 19.553,20 19,20 L17,20 C16.447,20 16,20.448 16,21 C16,21.552 16.447,22 17,22 L17,22 Z M20,10 L40,10 L40,6 L34.899,6 C34.424,6 34.014,5.665 33.92,5.199 C33.543,3.345 31.895,2 30,2 C28.105,2 26.457,3.345 26.08,5.199 C25.986,5.665 25.576,6 25.101,6 L20,6 L20,10 Z M18,11 L18,5 C18,4.448 18.447,4 19,4 L24.343,4 C25.178,1.64 27.439,0 30,0 C32.561,0 34.822,1.64 35.657,4 L41,4 C41.553,4 42,4.448 42,5 L42,11 C42,11.552 41.553,12 41,12 L19,12 C18.447,12 18,11.552 18,11 L18,11 Z M30,4 C28.897,4 28,4.897 28,6 C28,7.103 28.897,8 30,8 C31.103,8 32,7.103 32,6 C32,4.897 31.103,4 30,4 L30,4 Z M45,56 C45.256,56 45.512,55.902 45.707,55.707 L51.707,49.707 C51.895,49.52 52,49.265 52,49 L52,9 C52,8.448 51.553,8 51,8 L45,8 C44.447,8 44,8.448 44,9 C44,9.552 44.447,10 45,10 L50,10 L50,48.586 L44.293,54.293 C43.902,54.684 43.902,55.316 44.293,55.707 C44.488,55.902 44.744,56 45,56 L45,56 Z M15,8 L9,8 C8.447,8 8,8.448 8,9 L8,52 C8,54.206 9.794,56 12,56 L41,56 C41.553,56 42,55.552 42,55 L42,49 C42,48.547 42.446,48 43,48 L47,48 C47.553,48 48,47.552 48,47 C48,46.448 47.553,46 47,46 L43,46 C41.402,46 40,47.402 40,49 L40,54 L12,54 C10.897,54 10,53.103 10,52 L10,10 L15,10 C15.553,10 16,9.552 16,9 C16,8.448 15.553,8 15,8 L15,8 Z M56,9 L56,55 C56,57.57 53.57,60 51,60 L9,60 C6.43,60 4,57.57 4,55 L4,9 C4,6.43 6.43,4 9,4 L15,4 C15.553,4 16,4.448 16,5 C16,5.552 15.553,6 15,6 L9,6 C7.542,6 6,7.542 6,9 L6,55 C6,56.458 7.542,58 9,58 L51,58 C52.458,58 54,56.458 54,55 L54,9 C54,7.542 52.458,6 51,6 L45,6 C44.447,6 44,5.552 44,5 C44,4.448 44.447,4 45,4 L51,4 C53.57,4 56,6.43 56,9 L56,9 Z" id="notepad"/>
</g>
</g>
</svg>
