<?xml version="1.0" encoding="UTF-8"?>
<svg width="37px" height="20px" viewBox="0 0 37 20" version="1.1" xmlns="http://www.w3.org/2000/svg" xmlns:xlink="http://www.w3.org/1999/xlink">
    <!-- Generator: Sketch 48.2 (47327) - http://www.bohemiancoding.com/sketch -->
    <title>Group</title>
    <desc>Created with Sketch.</desc>
    <defs></defs>
    <g id="Design" stroke="none" stroke-width="1" fill="none" fill-rule="evenodd" transform="translate(-730.000000, -1905.000000)">
        <g id="Group" transform="translate(730.000000, 1905.000000)">
            <path d="M2.02712741,15.4683927 L0.369239989,15.4683927 L0.369239989,10.1197542 L2.52231571,8 L8.96174656,8 L14.497261,0.326809776 L27.9678259,0.326809776 L32.858522,8 L35.2624425,8 L36.5573003,10 L36.5573003,15.4683927 L35.089546,15.4683927 C34.3784062,12.4894642 32.6654655,11 29.950724,11 C27.2359826,11 25.5861252,12.4894642 25.0011518,15.4683927 L12.11664,15.4683927 C11.5419606,12.4894642 9.84508881,11 7.02602471,11 C4.20696061,11 2.54066151,12.4894642 2.02712741,15.4683927 Z" id="Path-12" fill="#FFFFFF"></path>
            <circle id="Oval" stroke="#888888" fill="#FFFFFF" cx="7" cy="16" r="3"></circle>
            <circle id="Oval" stroke="#888888" fill="#FFFFFF" cx="30" cy="16" r="3"></circle>
            <polygon id="Path-13" stroke="#888888" fill="#000000" points="11.4572591 8 15.6765182 2 19.8957773 2 19.8957773 8"></polygon>
            <polygon id="Path-13" stroke="#888888" fill="#000000" transform="translate(26.172787, 5.000000) scale(-1, 1) translate(-26.172787, -5.000000) " points="21.9684481 8 25.9516407 2 30.3771255 2 30.3771255 8"></polygon>
        </g>
    </g>
</svg>