<svg width="166" height="25" viewBox="0 0 166 25" fill="none" xmlns="http://www.w3.org/2000/svg">
<path fill-rule="evenodd" clip-rule="evenodd" d="M3.2321 15.9341C2.96305 15.9341 2.74501 15.7082 2.74501 15.431V12.1426V0H0V15.431C0 17.0993 1.195 18.4738 2.74501 18.7186C2.89736 18.7431 3.05041 18.7648 3.20834 18.7669V18.7698H3.94072V15.9341H3.2321Z" transform="translate(129.209 1.44336)" fill="white"/>
<path fill-rule="evenodd" clip-rule="evenodd" d="M7.3636 12.2716C4.84501 12.2716 2.79533 10.1665 2.79533 7.57917C2.79533 4.99183 4.84501 2.88672 7.3636 2.88672C9.8822 2.88672 11.9319 4.99183 11.9319 7.57917C11.9319 10.1665 9.8822 12.2716 7.3636 12.2716ZM11.9319 0.360958V1.64597C10.6754 0.618682 9.08972 0 7.3636 0C3.30268 0 0 3.40022 0 7.58012C0 11.76 3.30268 15.1602 7.3636 15.1602C9.08972 15.1602 10.6754 14.5416 11.9319 13.5143V14.7993H14.7272V0.360958H11.9319Z" transform="translate(133.997 5.41406)" fill="white"/>
<path fill-rule="evenodd" clip-rule="evenodd" d="M7.3629 16.2423C4.84431 16.2423 2.79533 14.1372 2.79533 11.5499C2.79533 8.96253 4.84431 6.85742 7.3629 6.85742C9.8815 6.85742 11.9312 8.96253 11.9312 11.5499C11.9312 14.1372 9.8815 16.2423 7.3629 16.2423ZM7.3629 3.97054C5.63748 3.97054 4.05183 4.58922 2.79533 5.61651V0H0V18.7698H2.79533V17.4848C4.05183 18.5121 5.63748 19.1308 7.3629 19.1308C11.4238 19.1308 14.7265 15.7305 14.7265 11.5507C14.7265 7.37076 11.4238 3.97054 7.3629 3.97054Z" transform="translate(150.821 1.44336)" fill="white"/>
<path fill-rule="evenodd" clip-rule="evenodd" d="M16.2961 0C14.3421 0 13.0423 0.701702 12.0926 2.4408C11.3868 0.785444 9.91085 0 8.06523 0C6.08474 0 4.58504 1.12258 4.20278 2.18813V0L0 1.17817V13.9893H4.20278V7.18162C4.20278 5.41365 4.49909 3.70271 6.61585 3.70271C8.48732 3.70271 8.40486 5.75006 8.40486 6.76002V13.9893H12.6069V6.76002C12.6069 5.07723 13.1751 3.70271 15.048 3.70271C16.3771 3.70271 16.8097 4.76825 16.8097 6.03089V13.9893H21.0125V5.91827C21.0125 2.609 19.8769 0 16.2961 0Z" transform="translate(42.1382 6.18164)" fill="white"/>
<path fill-rule="evenodd" clip-rule="evenodd" d="M10.8885 0L7.79268 9.07737H7.73887L4.39915 0H0L5.45788 13.8124H9.77457L14.9879 0H10.8885Z" transform="translate(91.0107 6.35742)" fill="white"/>
<path fill-rule="evenodd" clip-rule="evenodd" d="M7.31259 0C3.23979 0 0 2.80464 0 7.15274C0 11.5001 3.26774 14.3055 7.34054 14.3055C9.4587 14.3055 11.6083 13.323 12.9116 11.6127L10.0632 9.45277C9.38462 10.4057 8.48942 11.1262 7.15814 11.1262C5.58297 11.1262 4.41732 10.0866 4.09236 8.50778H13.4651V7.15274C13.4651 2.80464 11.1142 0 7.31259 0ZM4.09236 5.35038C4.20068 4.16644 5.17835 2.76953 6.97015 2.76953C8.43631 2.76953 9.49574 4.16644 9.46848 5.35038H4.09236Z" transform="translate(105.08 6.13672)" fill="white"/>
<path fill-rule="evenodd" clip-rule="evenodd" d="M3.82052 15.1841V0L0 0.841032V15.6836C0 19.1661 2.50671 20.1061 3.99523 20.1061C4.65562 20.1061 5.34817 19.948 5.73043 19.6722V16.3608C4.9666 16.7239 3.82052 16.129 3.82052 15.1841Z" transform="translate(119.691)" fill="white"/>
<path fill-rule="evenodd" clip-rule="evenodd" d="M20.7602 0C17.7434 0 15.1759 1.53985 14.0458 4.10409C12.9151 1.53985 10.3469 0 7.33145 0C3.25796 0 0 2.80537 0 7.15274C0 11.5001 3.25796 14.3055 7.33145 14.3055C10.3469 14.3055 12.9151 12.7656 14.0458 10.2014C15.1759 12.7656 17.7434 14.3055 20.7602 14.3055C24.833 14.3055 28.0917 11.5001 28.0917 7.15274C28.0917 2.80537 24.833 0 20.7602 0ZM7.33145 10.8008C5.23565 10.8008 3.88132 9.36854 3.88132 7.15298C3.88132 4.93742 5.23565 3.50586 7.33145 3.50586C9.42655 3.50586 10.7809 4.93742 10.7809 7.15298C10.7809 9.36854 9.42655 10.8008 7.33145 10.8008ZM20.7602 10.8008C18.6651 10.8008 17.3115 9.36854 17.3115 7.15298C17.3115 4.93742 18.6651 3.50586 20.7602 3.50586C22.8553 3.50586 24.209 4.93742 24.209 7.15298C24.209 9.36854 22.8553 10.8008 20.7602 10.8008Z" transform="translate(64.037 6.13672)" fill="white"/>
<path fill-rule="evenodd" clip-rule="evenodd" d="M25.2691 0C22.4947 0 19.965 1.07854 18.0495 2.85085C16.1333 1.07854 13.6035 0 10.8298 0C4.8492 0 0 5.00865 0 11.1868C0 17.3657 4.8492 22.3736 10.8298 22.3736C13.6035 22.3736 16.1333 21.2958 18.0495 19.5228C19.965 21.2958 22.4947 22.3736 25.2691 22.3736C31.2497 22.3736 36.0989 17.3657 36.0989 11.1868C36.0989 5.00865 31.2497 0 25.2691 0ZM30.1399 12.3425C30.1218 12.3612 25.0587 17.5893 25.0587 17.5893C24.4319 18.2369 23.4151 18.2333 22.7882 17.5857C22.1614 16.9382 22.1614 15.8834 22.7882 15.2352L25.0685 12.8695H7.73397C6.84715 12.8695 6.12875 12.2067 6.12875 11.2906C6.12875 10.3752 6.84715 9.71251 7.73397 9.71251H25.188L22.7882 7.16415C22.1614 6.51659 22.1614 5.3969 22.7882 4.74934C23.4151 4.10178 24.4319 4.10178 25.058 4.74934L30.1399 9.99911C30.7668 10.6467 30.7668 11.6942 30.1399 12.3425Z" transform="translate(0.623291 2.17188)" fill="white"/>
</svg>
