<svg xmlns="http://www.w3.org/2000/svg" viewBox="0 0 320 64"><style>.st0{fill:#B3B3B3;stroke:#808080;stroke-width:0.5;stroke-miterlimit:10;} .st1{fill:none;stroke:#808080;stroke-width:0.5;stroke-miterlimit:10;}</style><g id="smoke_4"><path class="st0" d="M223.1 25.4c-1.5-.2-2.1-2.2-.2-2.1 1.9.1 2.1 3.1-.2 2.4M232.8 23.9c-2.4-2.4 2.5-2.3.2-.2M236.8 30.6c-.5-.6-.4-1.2.3-1.3.2.7 0 1.2-.5 1.5M217.4 44.4c-3.3-3.7 4.9-4.5.7-.6M225 39.2c-2-1.1-2-3.3.6-3.5.2.8.7 1.9.3 2.5M233.3 44.2c-.5-.8-.1-1.6.9-1.6.3.9-.2 1.6-1.1 1.7M215.6 31.3c-2.7 0-3.9-3.7-.5-2.3 2.9 1.2 1.9 3.8-1.1 2.3M230.3 30.4c-2.9-.4-3.6-4-.3-3.2 3.2.8 2.4 4.7-.7 3.4"/></g><g id="smoke_3"><path class="st0" d="M147.2 41.8c-1.8-.1-4.7.6-2.3 2.5 2.1 1.7 4.9.2 5.9-1.9 1.4-3.1-1.3-10.3-5.1-6.5-1.7 1.7-.9 4 1 5.1M153.1 18.4c-1.5-.2-2.1-2.2-.2-2.1 1.9.1 2.1 3.1-.2 2.4M163.8 18.7c-3.3-1.5-.9-5.5 1.6-2.9 2.2 2.3-.9 6-1.7 3.2M172.3 23.9c-1.9-.7-3.8-2.6-2.4-4.7 1.8-2.7 4 .3 4.3 2.3-.7.7-1.9 1.2-2.6.9M175.2 17.4c-1-.4-2-2.5-.7-3 1.8-.8 1.9 2.2 1.9 3.2-.5.2-1 .2-1.3 0M173.8 27.9c-2.4-2.4 2.5-2.3.2-.2M177.8 29.6c-.5-.6-.4-1.2.3-1.3.2.7 0 1.2-.5 1.5M174.4 42.4c-3.3-3.7 4.9-4.5.7-.6M170 47.2c-2-1.1-2-3.3.6-3.5.2.8.7 1.9.3 2.5M167.3 50.2c-.5-.8-.1-1.6.9-1.6.3.9-.2 1.6-1.1 1.7M168.7 38.2c-2.2-2.1-1-6.6 2.5-5.1 3.4 1.5 1 5-1.3 5.9-.2-.7-.6-.8-1.1-1.1M161 33.8c1.5 0 4.4-.2 4.4 1.9 0 1.8-2.5 2.7-3.9 2.9-3.6.6-7.1-2.3-4.6-6 1.9-2.7 3.6-.8 4.5 1.5M164.4 31.2c-4.1-.1-2.2-5.6 1.2-4.9 4.5.9 4.2 4.7-.2 5-.1-.2-.2-.6-.1-.9M154.3 29.4c-3.1.4-7.4-5.6-2.2-5.6.8-2.6 4.8-2.4 5.2.3.4 2.5-2.3 4.5-4.3 5.4M146.6 28.3c-2.7 0-3.9-3.7-.5-2.3 2.9 1.2 1.9 3.8-1.1 2.3M158.3 48.4c-2.9-.4-3.6-4-.3-3.2 3.2.8 2.4 4.7-.7 3.4"/></g><g id="smoke_2_1_"><path class="st0" d="M112.9 43.8c.5 6.2-8.7 2.3-5.7-1.5.8-1 1.6-.6 2.5.2-5.1-6.3 8.8-5.3 4.7 0-.7.9-1.8 1-2.8.9M87.6 55.8c-2.7.1-2.6-3.5 0-3.6 3.3-.2 2.7 3.8-.1 3.3M97.9 51.7c-3.1 2-5.3-1.2-2.8-3.7 1.5-1.5 7.7-1.8 6.3 1.3-.5 1.2-2.7 1.7-3.8 1.9M85.1 46.5c0 2.1 2.4 3.6 4 1.9 1.3-1.3.9-3.8-.2-5.1 4.8-.1-.3-5.4-2.4-6.2-2.7-1-8.1 0-6.6 4 .8 2.1 3 2.7 5.1 2.6-1.6-.4-6-.8-5.7 2 .3 3 4.3 1.9 5.5.4M77.4 35.3c-3.5-.8-2.5-5.8 1-4.4 2.5 1 1.7 4.1-.8 4.4M78.2 25.5c-1.8 1.4-6.9 1.4-5.7-2 .9-2.6 5-2.5 6.3-.5.8 1.2.3 2.1-.9 2.9M84.9 29.4c-6.7 1.2-2.1-10.2 1.8-3.1-1-2.1-1.3-6.2 2.2-4.5 2.2 1 4.4 5.5.5 5.5 1.7 1.3 2 4.4-.1 5.5-2 1-4.9-.7-4.7-3M96.3 36.9c-2.1 1.5-5.3.4-4.6-2.6.7-2.6 4.3-3.2 5.6-.8-.6-2.4-.9-5.3 2-6.2 2.6-.8 4.2 1.1 4 3.5 1.8-2.4 5-2 5 1.4 0 2.1-2.4 4.7-4.5 5.1-1.3.2-2.2-.4-3-1.3.5 2.5.6 5.6-2.8 5.5-2.8-.1-3.2-2.3-2.1-4.5M97.9 35.8c1.9 0 5.8-2.8 4-4.9M99.4 22.8c-4.4.6-8.2-.4-5.8-5.7 2.1-4.7 8.9-4.2 9.3 1.4.2 3-3 3.8-5.3 4.3M99.8 19.5c-1.7.9-4.4-.3-4-2.4M112 23.2c-1.1 6.5-8.3.2-5.5-3.6 1.1-1.5 3.3-2.8 4.6-4.1 1.7-1.6 3.6-2.4 4.4.5.9 3.3-1.2 5.3-4.4 4.9.5.9.8 1.7.7 2.7M114.3 35.8c-2-1.7-2.9-5.1-.2-6.7 3-1.8 6.2 1.3 3.8 4.1-.9 1-2.2 1.6-3.4 2M105.1 12.2c-2.4-.2-4.6-2.5-1.7-4.6 2.5-1.8 5.3 4 .8 4.9M107.1 54.2c-2.4-.2-4.6-2.5-1.7-4.6 2.5-1.8 5.3 4 .8 4.9M83.7 16.5c-3 2.1-4.8-2-1.6-3.6 1.1-.6 4-.8 4.6.7.5 1.2-1.2 2.7-2.3 2.5"/><path class="st1" d="M111.9 17.6c-1.5.2-3.4 4.3-3.1 5.2"/></g><g id="smoke_1"><path class="st0" d="M13.9 21.2c-6.5-4.2 1-9.9 6-5.4-1.5-4.3 3.2-9.3 7.2-5.6 2.1 1.9 1.2 5.6.7 8.1 7.3-2.7 7.3 4.7 2.2 7.9 3.2 9.5-11.1 9.5-12.2 1.7 0 4.6-11.9-1-4.6-6.2"/><path class="st1" d="M20.6 27.8c7-6.3-3.4-10.3-3.5-5.2"/><path class="st0" d="M37.6 18.8c-3.1 2.4-6.5 8-1.5 10.5 2.7 1.4 4-.5 6.4-1 2-.4 4.8 1 6.4-.7 1.8-2 .4-5.7-2-6.3 4.5 3.7 4.7-1.9 3.7-4.9-.9-2.4-1.8-10.4-5.5-9.7-2.2.4-2.7 3.7-2.6 5.5-5.2-12.2-18.7 5.6-4.9 6.6"/><path class="st1" d="M38.8 16c5 .4 9 6.4 3.4 9.2"/><path class="st0" d="M42.8 34.6c.9-4.7 8.2-6.4 8.6-.7 5.4-3.2 9.5 11 3 11.3.2 2.4-1.5 8.5-4.8 4.7-.7 8.3-14.3 3-8.6-2.9-4.2 5.7-9.1-3.7-3.2-5-3-.6-7.3-3.7-4.4-7 2.2-2.6 7-.9 9.6.2"/><path class="st1" d="M48.4 37.2c0 2.6 1.4 6.7-1.2 8.5-2.4 1.7-5-.1-5.8-2.5"/><path class="st0" d="M28.6 38.2c-1.4-5-7.6-7.5-10.8-2.7-.4-4.2-6.1-4.6-8.2-1.5-2.6 3.9-.3 8.8 4.2 5.2-.4 2.1-2.2 3.6-2.6 5.7-.5 2.4 1.2 4.6 2.7 1.5-2.1 11.1 8.6 9.4 12 1.3 2.4 8.1 9.4-.6 5.1-3.4 6.8-2.6-1.2-10.9-2.9-6.6"/><path class="st1" d="M21.4 37.2c-4.7 5.3.8 11.5 5.8 6.4"/></g></svg>