<svg height="30" viewBox="0 0 512 512" width="30" xmlns="http://www.w3.org/2000/svg"><path d="M408.2 150.6c-13 13-34 13-47 0s-13-34 0-47l94-94c13-12.8 34-12.8 47 0 13 13 13 34 0 47l-94 94zM256 511.6L128 384H32c-17.6 0-32-14.4-32-32V160c0-17.6 14.4-32 32-32h96L256 .4s31.8-4 31.8 32v447.5c0 36-32 32-32 32zm-32-383.5l-64 64H64v128h96l64 64V128zm159.7 160c-17.6 0-32-14.3-32-32s14.4-32 32-32h96c17.6 0 32 14.3 32 32s-14.4 32-32 32h-96zm24.5 73.4l94 94c13 13 13 34 0 47-13 12.8-34 12.8-47 0l-94-94c-13-13-13-34 0-47s34-13 47 0z"/></svg>
