<svg width="26" height="16" viewBox="0 0 26 16" fill="none" xmlns="http://www.w3.org/2000/svg">
<path d="M21 15C23.2091 15 25 13.2091 25 11C25 8.79086 23.2091 7 21 7C18.7909 7 17 8.79086 17 11C17 13.2091 18.7909 15 21 15Z" stroke="#717171"/>
<path d="M5 15C7.20914 15 9 13.2091 9 11C9 8.79086 7.20914 7 5 7C2.79086 7 1 8.79086 1 11C1 13.2091 2.79086 15 5 15Z" stroke="#717171"/>
<path d="M6 2H8.45866L7.7827 4.10542L13.2133 11H21.0899L16.7122 4.10542H11.3212H8.16224" stroke="black"/>
<path d="M4.93164 11.201L8.86729 1H11" stroke="black"/>
<path d="M13.4141 10.7673L16.8794 3.91772L17.6851 1H19.49H15.6969" stroke="black"/>
</svg>
