<svg width="43" height="25" viewBox="0 0 43 25" fill="none" xmlns="http://www.w3.org/2000/svg">
<path d="M10 24C11.6569 24 13 22.6569 13 21C13 19.3431 11.6569 18 10 18C8.34315 18 7 19.3431 7 21C7 22.6569 8.34315 24 10 24Z" stroke="#717171"/>
<path d="M33 24C34.6569 24 36 22.6569 36 21C36 19.3431 34.6569 18 33 18C31.3431 18 30 19.3431 30 21C30 22.6569 31.3431 24 33 24Z" stroke="#717171"/>
<path d="M4.94052 20.5815H0.958008V11.1479L3.8531 2.07333L5.28829 0.581543H40.6684L42.158 2.07333V20.5815H38.0584C37.3461 17.4634 35.6303 15.9044 32.911 15.9044C30.1917 15.9044 28.539 17.4634 27.9531 20.5815H15.047C14.4713 17.4634 12.7716 15.9044 9.9478 15.9044C7.12401 15.9044 5.45491 17.4634 4.94052 20.5815Z" stroke="black"/>
<path d="M13.9385 11.1086V3.60889H6.4339L4.22656 11.1086H13.9385Z" stroke="#717171"/>
<path d="M22.632 11.1086V3.60889H15.1191V11.1086H22.632Z" stroke="#717171"/>
<path d="M31.3459 11.1086V3.60889H23.833V11.1086H31.3459Z" stroke="#717171"/>
<path d="M40.0597 11.1086V3.60889H32.5469V11.1086H40.0597Z" stroke="#717171"/>
</svg>
