<svg width="39" height="21" viewBox="0 0 39 21" fill="none" xmlns="http://www.w3.org/2000/svg">
<path d="M3.02703 16.4682H1.36914V11.1196L3.52222 8.99985H9.96165L15.4972 1.32666H28.9677L33.8584 8.99985H36.2623L37.5572 10.9999V16.4682H36.0894C35.3783 13.4893 33.6654 11.9999 30.9506 11.9999C28.2359 11.9999 26.586 13.4893 26.0011 16.4682H13.1165C12.5419 13.4893 10.845 11.9999 8.02593 11.9999C5.20686 11.9999 3.54056 13.4893 3.02703 16.4682Z" stroke="black"/>
<path d="M8 20C9.65685 20 11 18.6569 11 17C11 15.3431 9.65685 14 8 14C6.34315 14 5 15.3431 5 17C5 18.6569 6.34315 20 8 20Z" fill="white" stroke="#717171"/>
<path d="M31 20C32.6569 20 34 18.6569 34 17C34 15.3431 32.6569 14 31 14C29.3431 14 28 15.3431 28 17C28 18.6569 29.3431 20 31 20Z" fill="white" stroke="#717171"/>
<path d="M12.457 9L16.6763 3H20.8955V9H12.457Z" stroke="#717171"/>
<path d="M31.377 9L27.3938 3H22.9683V9H31.377Z" stroke="#717171"/>
</svg>
