<svg width="52" height="28" viewBox="0 0 52 28" fill="none" xmlns="http://www.w3.org/2000/svg">
<rect x="18" y="1" width="33" height="15" stroke="black"/>
<path d="M4.98251 24.0001H1V14.5665L3.69884 6.02824L5.14574 4.4834H16.3025V17.5645H51V24.0001H44C43.386 20.882 41.7193 19.323 39 19.323C36.2807 19.323 34.614 20.882 34 24.0001H15.0889C14.5133 20.882 12.8136 19.323 9.98979 19.323C7.166 19.323 5.4969 20.882 4.98251 24.0001Z" stroke="black"/>
<path d="M13.7119 14.4997V7H6.20734L4 14.4997H13.7119Z" stroke="#717171"/>
<path d="M10 27C11.6569 27 13 25.6569 13 24C13 22.3431 11.6569 21 10 21C8.34315 21 7 22.3431 7 24C7 25.6569 8.34315 27 10 27Z" fill="white" stroke="#717171"/>
<path d="M39 27C40.6569 27 42 25.6569 42 24C42 22.3431 40.6569 21 39 21C37.3431 21 36 22.3431 36 24C36 25.6569 37.3431 27 39 27Z" fill="white" stroke="#717171"/>
</svg>
