<?xml version="1.0" encoding="UTF-8"?>
<svg width="56px" height="57px" viewBox="0 0 56 57" version="1.1" xmlns="http://www.w3.org/2000/svg" xmlns:xlink="http://www.w3.org/1999/xlink">
    <!-- Generator: Sketch 47.1 (45422) - http://www.bohemiancoding.com/sketch -->
    <title>Group 2</title>
    <desc>Created with Sketch.</desc>
    <defs></defs>
    <g id="Page-1" stroke="none" stroke-width="1" fill="none" fill-rule="evenodd">
        <g id="Game" transform="translate(-320.000000, -420.000000)">
            <g id="Group-2" transform="translate(320.000000, 420.000000)">
                <g id="Group-3">
                    <polygon id="Path-25" fill="#E3E5EA" points="1.91196287 44.3343601 4.56580871 51.8388568 13.1348531 51.8388568 30.0284344 44.3343601 34.2471277 56.4167879 50.7250464 50.375574 50.7250464 39.7319783 43.7735126 24.5236173 36.1900212 18.486165 30.0284344 2.68346291 27.9061689 0.921760706 26.3185047 10.2500269 17.3204501 0.921760706 16.2758329 2.68346291 16.2758329 13.9909903 13.1348531 24.5236173"></polygon>
                    <polyline id="Path-28" fill="#FF3BFF" points="34.4162308 20.1086345 41.3224119 30.0042841 39.7403186 34.703789 44.2651055 34.703789 49.3388099 42.6802907 41.8775203 49.3718575 52.8648143 49.3718575 55.8611614 51.4753537 55.8611614 38.8956484 51.1602807 20.1086345 39.7403186 10.3161649 34.4162308 10.3161649"></polyline>
                    <circle id="Oval-5" fill="#000000" cx="25" cy="27" r="3"></circle>
                    <polyline id="Path-26" fill="#FFFE4A" points="15.2602041 23.0484184 2.1081938 6.69507674 18.1973947 16.308701"></polyline>
                    <path d="M15.2644679,23.0439612 C19.2397273,21.4059171 20.2276775,19.1601843 18.2283186,16.3067628" id="Path-30" fill="#FFFE4A"></path>
                    <polygon id="Path-27" fill="#FF3BFF" points="17.1645352 17.2828783 21.5558759 23.5933669 23.1641081 17.2828783 25.4354438 20.4381226 26.9184843 14.7171357 26.9184843 10.5128947 21.5558759 12.9589485"></polygon>
                    <polygon id="Path-29" fill="#FF3BFF" points="4.31262169 39.960075 15.2350677 50.9851805 9.64316692 55 0 50.2007923 0 44.4741339"></polygon>
                    <circle id="Oval-5" fill="#000000" cx="3" cy="46" r="1"></circle>
                </g>
            </g>
        </g>
    </g>
</svg>