<?xml version="1.0" encoding="UTF-8"?>
<svg width="166px" height="100px" viewBox="0 0 166 100" version="1.1" xmlns="http://www.w3.org/2000/svg" xmlns:xlink="http://www.w3.org/1999/xlink">
    <!-- Generator: Sketch 47.1 (45422) - http://www.bohemiancoding.com/sketch -->
    <title>moovel_supersign_white_rgb</title>
    <desc>Created with Sketch.</desc>
    <defs></defs>
    <g id="Page-1" stroke="none" stroke-width="1" fill="none" fill-rule="evenodd">
        <g id="Game" transform="translate(-5595.000000, -1475.000000)" fill="#00FFFF">
            <path d="M5630.47501,1517.46299 L5711.74971,1517.46299 L5700.57752,1506.02479 C5697.65678,1503.11503 5697.65678,1498.09089 5700.57752,1495.18113 C5703.49589,1492.27296 5708.23043,1492.27296 5711.1488,1495.18113 L5734.81122,1518.74817 C5737.72959,1521.65792 5737.72959,1526.36471 5734.81122,1529.27289 C5734.72741,1529.35479 5711.1488,1552.82496 5711.1488,1552.82496 C5708.23043,1555.73314 5703.49747,1555.72054 5700.57752,1552.81394 C5697.65678,1549.90654 5697.65678,1545.16825 5700.57752,1542.26008 L5711.19782,1531.6377 L5630.47501,1531.6377 C5626.34612,1531.6377 5623,1528.66101 5623,1524.55035 C5623,1520.43968 5626.34612,1517.46299 5630.47501,1517.46299 Z M5644.80023,1575 C5657.55871,1575 5669.18814,1570.17949 5678.00117,1562.25845 C5686.81108,1570.17949 5698.44285,1575 5711.20055,1575 C5738.70545,1575 5761,1552.61506 5761,1525.00039 C5761,1497.38415 5738.70545,1475 5711.20055,1475 C5698.44285,1475 5686.81108,1479.82208 5678.00117,1487.74077 C5669.18814,1479.82208 5657.55871,1475 5644.80023,1475 C5617.29689,1475 5595,1497.38415 5595,1525.00039 C5595,1552.61506 5617.29689,1575 5644.80023,1575 L5644.80023,1575 Z" id="moovel_supersign_white_rgb"></path>
        </g>
    </g>
</svg>